<svg xmlns="http://www.w3.org/2000/svg"><symbol id="buffer" viewBox="0 0 24 24"><path d="m1.382,11.547l1.913-.923c.229-.152.528-.145.75.017.315.155,7.032,3.398,7.032,3.398.59.244,1.254.244,1.844,0,0,0,6.901-3.334,7.15-3.449.162-.116.379-.118.544-.006.235.115,2.005.968,2.005.968.509.246.509.648-.012.888l-9.692,4.68c-.59.244-1.254.244-1.844,0L1.382,12.441c-.509-.247-.509-.648,0-.894Zm.012-4.79l9.69,4.68c.59.244,1.254.244,1.844,0l9.69-4.68c.509-.246.509-.648,0-.894L12.927,1.183c-.59-.244-1.254-.244-1.844,0L1.394,5.864c-.51.246-.51.648,0,.894Zm21.224,10.484s-1.77-.854-2.005-.968c-.164-.113-.382-.111-.544.005-.246.115-7.142,3.455-7.142,3.455-.59.244-1.254.244-1.844,0,0,0-6.715-3.243-7.032-3.398-.222-.162-.521-.169-.75-.017l-1.913.923c-.509.246-.509.648,0,.894l9.69,4.68c.29.129.605.192.923.184.317.005.631-.057.922-.184l9.69-4.68c.516-.246.516-.648.006-.894Z" /></symbol></svg>