<svg xmlns="http://www.w3.org/2000/svg"><symbol id="clipboard" viewBox="0 0 24 24"><path d="m18.885,7.246h-2.132s0,0,0,0v-2.131c0-1.717-1.398-3.115-3.115-3.115H5.115c-1.717,0-3.115,1.397-3.115,3.115v8.524c0,1.717,1.397,3.115,3.115,3.115h2.131s0,0,0,0v2.132c0,1.717,1.398,3.115,3.115,3.115h8.524c1.717,0,3.115-1.397,3.115-3.115v-8.524c0-1.717-1.397-3.115-3.115-3.115Zm-11.64,7.54h-2.131c-.633,0-1.147-.515-1.147-1.148V5.115c0-.633.515-1.147,1.147-1.147h8.524c.633,0,1.148.515,1.148,1.147v2.131s0,0,0,0h-4.426c-1.717,0-3.115,1.398-3.115,3.115v4.426s0,0,0,0Zm12.787,4.099c0,.633-.515,1.147-1.147,1.147h-8.524c-.633,0-1.148-.515-1.148-1.147v-8.524c0-.633.515-1.148,1.148-1.148h8.524c.633,0,1.147.515,1.147,1.148v8.524Z" /></symbol></svg>